<svg width="580" height="580" xmlns="http://www.w3.org/2000/svg" version="1.1">

 <g>
  <title>Layer 1</title>
  <path fill="#7f7f7f" id="svg_2" d="m92.40432,404.59138l54.879,-1.0078l25.199,-0.55859c7.5781,-0.37109 15.172,-0.25781 22.738,0.33594c25.219,2.2656 49.402,11.133 70.109,25.703c3.4727,2.0508 7.9414,1.0469 10.195,-2.2969c2.3789,-2.9766 2.0352,-7.293 -0.78516,-9.8555c-21.934,-18.547 -48.668,-30.508 -77.113,-34.496c-8.3516,-1.1133 -16.77,-1.6719 -25.199,-1.6797l-25.426,-0.55859l-41.719,-0.67188c1.5117,-91.559 2.2969,-200.93 2.4648,-311.14l78.008,0c3.9766,0 7.9531,0.50391 11.871,1.0625c31.238,4.2188 60,19.285 81.258,42.562l1.1758,1.1211l0,-0.00391c0.37891,0.30078 0.76953,0.58203 1.1758,0.83984c-9.5195,54.434 -9.2969,198.07 0.72656,246.68c0,0.89453 3.9219,1.5664 8.2305,1.5117c4.3125,-0.05468 7,-0.72656 7.168,-1.5117c10.023,-48.609 10.246,-192.19 0.72656,-246.4l0.00391,0c0.92578,-0.64453 1.7695,-1.3984 2.5195,-2.2383c22.758,-25.812 54.5,-41.977 88.762,-45.195c4.0312,-0.44922 7.8398,-0.50391 12.098,-0.67188l12.938,0l25.199,-0.39062l35.895,-0.67188c1.1211,63 2.4648,107.46 4.0898,141.34l-0.00391,0c0.21094,1.9258 1.1797,3.6875 2.6953,4.8945c1.5117,1.2109 3.4453,1.7656 5.3672,1.5469c3.6172,-0.07031 6.6055,-2.8398 6.9453,-6.4414c1.1211,-23.633 2.1289,-52.527 3.0234,-89.207c9.5781,2.5312 19.359,4.1992 29.234,4.9844l7.8945,0.67188l0,8.793c0,29.961 2.6875,59.922 7.8945,74.816l0,-0.0039c2.5938,0.86719 5.3438,1.1719 8.0664,0.89844c2.3516,0.21875 4.7227,-0.08985 6.9414,-0.89844c5.207,-14.895 7.8945,-44.801 7.8945,-74.816l0,-16.801l0.00391,0.0039c0.03906,-0.71094 0.03906,-1.4219 0,-2.1289c-0.60938,-4.2109 -2.4258,-8.1562 -5.2266,-11.355c-2.8047,-3.1992 -6.4727,-5.5195 -10.566,-6.6758c-1.3359,-0.36719 -2.707,-0.60938 -4.0859,-0.73047l-2.8008,0l-5.2656,0.33594l-10.137,0.83984c-9.7344,0.78906 -19.383,2.418 -28.84,4.875c0.33594,-14.504 0.61719,-30.129 0.89453,-47.039l0.0039,-0.0039c0.125,-6.3359 -4.8633,-11.602 -11.203,-11.816l-0.44922,0l-48.047,-1.0078l-25.199,-0.39062l-12.938,0c-4.4805,0 -9.4648,0 -14.223,0.39062c-36.172,2.3867 -70.484,16.91 -97.383,41.219c-24.402,-22.805 -55.238,-37.527 -88.312,-42.168c-4.8164,-0.73047 -9.7422,-1.2891 -14.617,-1.2891l-94.805,0c-3.9492,0.08594 -7.7188,1.6836 -10.52,4.4648c-2.8047,2.7852 -4.4336,6.5391 -4.5469,10.488l0,47.77c-6.5352,-0.52344 -13.645,-1.0078 -21.336,-1.457l-14.953,-0.83984l-6.1016,0c-0.8125,0.07422 -1.6172,0.20703 -2.4102,0.39062c-1.6211,0.35156 -3.1875,0.9375 -4.6445,1.7344c-2.9531,1.5898 -5.3984,3.9766 -7.0586,6.8906c-0.82031,1.5117 -1.4219,3.1328 -1.793,4.8164c-0.26562,1.3633 -0.41406,2.75 -0.44531,4.1406c-1.0078,22.398 -1.793,47.375 -2.4648,74.48c-1.3438,54.32 -2.0156,116.26 -2.0156,178.19l0,79.969c0.05469,1.4727 0.26172,2.9375 0.61719,4.3672c1.0586,4.3125 3.375,8.2109 6.6562,11.203c3.2812,2.9883 7.375,4.9375 11.766,5.5977l4.9258,0c30.016,-0.33594 59.078,-0.78516 86.184,-1.457l39.199,-1.0625c6.1602,0 12.602,-0.50391 17.473,-0.44922l0.00391,0c5.0586,0.09375 10.102,0.63672 15.062,1.625c16.988,3.2656 32.758,11.129 45.586,22.738c1.1523,0.67188 2.5508,0.79688 3.8086,0.33594c1.8359,-0.63281 3.4766,-1.7344 4.7578,-3.1953c1.1758,-1.2422 2.1211,-2.6836 2.8008,-4.2539c0.66797,-1 0.66797,-2.3047 0,-3.3047c-17.398,-21.488 -42.703,-35.09 -70.223,-37.742c-6.9453,-0.61719 -12.711,-0.61719 -18.984,-0.89453l-39.199,-1.0625c-25.258,-0.61719 -52.191,-1.0625 -80.023,-1.3438l-0.00391,-1.7422l0,-22.961l0,-46.367c0,-61.992 -0.67187,-123.98 -2.0156,-178.19c-0.61719,-26.152 -1.3984,-50.398 -2.3516,-72.129l0.33594,0l14.953,-0.83984c7.9531,-0.44531 15.25,-0.94922 21.895,-1.5117c0.28125,98.617 1.1211,194.6 2.5195,275.52l0,0.44922c0.09375,6.875 5.7266,12.383 12.602,12.32l-0.001,0.00763z"/>
  <path fill="#007f7f" id="svg_3" d="m565.82432,256.86138c-0.17969,-3.8008 -1.7969,-7.3945 -4.5156,-10.051c-2.7227,-2.6602 -6.3516,-4.1914 -10.156,-4.2852c-20.121,-0.67578 -40.254,1.0352 -59.973,5.0938c-19.406,4.3281 -38.211,11.004 -56,19.883c-48.973,24.895 -87.559,66.312 -108.92,116.93c-2.6875,7.6172 -5.6016,14.895 -7.7852,22.398c-2.1836,7.5039 -4.1445,14.727 -5.6016,21.281c-4.3633,21.84 -8.3398,41.441 -11.59,57.793c-13.328,13.84 -25.188,29.023 -35.391,45.305c-0.33594,0.55859 1.9609,3.5859 5.0391,6.5508c3.0781,2.9688 5.2656,4.5938 5.6016,4.3125c32.816,-17.527 108.41,-93.238 126.11,-125.72c0.28125,-0.55859 -1.9609,-3.4727 -4.9297,-6.4414s-5.1523,-4.4258 -5.6016,-4.1445c-15.566,8.457 -41.105,30.297 -65.406,54.266c2.5391,-8.3984 5.1523,-17.285 7.8398,-26.656c1.793,-6.7773 4.1992,-12.656 6.2734,-19.32c2.0703,-6.6641 5.6016,-12.824 8.1211,-19.543c6.6211,-13.539 14.598,-26.371 23.801,-38.305c20.117,-26.234 46.055,-47.438 75.77,-61.938c15.645,-7.4805 32.105,-13.121 49.055,-16.801c12.414,-2.5391 25.023,-4.0039 37.688,-4.3672c-0.63281,25.199 -5.7734,50.086 -15.176,73.473l-57.457,27.328l-0.44922,0l0.00391,0c-4.9375,2.332 -8.0469,7.3438 -7.9492,12.801c0.09375,5.457 3.3789,10.352 8.3945,12.512l21.113,8.9609c-13.059,15.273 -28.129,28.707 -44.801,39.926c-16.84,11.109 -35.016,20.047 -54.094,26.602c-2.3516,0.83984 -3.3594,4.9844 -2.1289,9.1289c1.2305,4.1445 3.7539,6.2148 6.1602,5.6016l0,-0.00391c21.477,-4.3711 42.133,-12.102 61.207,-22.902c25.176,-14.324 47.379,-33.332 65.406,-56c0.63672,-0.79688 1.1836,-1.6602 1.625,-2.5781c1.4727,-3.1172 1.6445,-6.6953 0.48047,-9.9414c-1.168,-3.2422 -3.5742,-5.8945 -6.6953,-7.3633l-0.50391,0l-8.1758,-3.8633l35.617,-15.566l-0.00391,0c3.2539,-1.4219 5.8672,-3.9961 7.3359,-7.2227l0,-0.33594c15.117,-33.359 22.156,-69.812 20.555,-106.4l0.10696,-0.39755z"/>
 </g>
</svg>